<svg xmlns="http://www.w3.org/2000/svg" width="49" height="49" fill="none"><path fill="#ECD979" d="M23.6.5a1 1 0 0 1 1.8 0l2.8 5c.3.4 1 .6 1.4.2l4.7-3.2a1 1 0 0 1 1.6.8l.4 5.6c0 .5.5 1 1.1.9l5.7-1a1 1 0 0 1 1 1.4l-2 5.2a1 1 0 0 0 .6 1.3l5.4 1.6c.8.2 1 1.2.4 1.7l-4.2 3.8a1 1 0 0 0 0 1.4l4.2 3.8a1 1 0 0 1-.4 1.7l-5.4 1.6a1 1 0 0 0-.7 1.3l2.1 5.2a1 1 0 0 1-1 1.3l-5.7-.9a1 1 0 0 0-1.1 1l-.4 5.5a1 1 0 0 1-1.6.8l-4.7-3.2a1 1 0 0 0-1.4.3l-2.8 4.9a1 1 0 0 1-1.8 0l-2.8-5a1 1 0 0 0-1.4-.2l-4.7 3.2a1 1 0 0 1-1.6-.8l-.4-5.6c0-.5-.5-1-1.1-.9l-5.7 1a1 1 0 0 1-1-1.4l2-5.2a1 1 0 0 0-.6-1.3L1 30.7A1 1 0 0 1 .5 29l4.2-3.8a1 1 0 0 0 0-1.4L.5 20a1 1 0 0 1 .4-1.7l5.4-1.6c.6-.1.9-.8.7-1.3l-2.1-5.2a1 1 0 0 1 1-1.3l5.7.9a1 1 0 0 0 1.1-1l.4-5.5a1 1 0 0 1 1.6-.8l4.7 3.2a1 1 0 0 0 1.4-.3L23.6.5Z"/></svg>