<svg xmlns="http://www.w3.org/2000/svg" width="545" height="484" fill="none"><g fill="#FCF9F9" fill-opacity=".1" clip-path="url(#a)"><path d="M544.3 483.5h-17v-17.3h17v17.3ZM527.3 483.5h-17v-17.3h17v17.3ZM459.3 483.5h-17v-17.3h17v17.3ZM442.3 483.5h-17v-17.3h17v17.3ZM425.3 483.5h-17v-17.3h17v17.3ZM323.3 483.5h-17v-17.3h17v17.3ZM221.3 483.5h-17v-17.3h17v17.3ZM119.3 483.5h-17v-17.3h17v17.3ZM102.3 483.5h-17v-17.3h17v17.3ZM85.3 483.5h-17v-17.3h17v17.3ZM17.3 483.5H.3v-17.3h17v17.3ZM544.3 466.2h-17v-17.3h17v17.3ZM476.3 466.2h-17v-17.3h17v17.3ZM459.3 466.2h-17v-17.3h17v17.3ZM442.3 466.2h-17v-17.3h17v17.3ZM323.3 466.2h-17v-17.3h17v17.3ZM306.3 466.2h-17v-17.3h17v17.3ZM238.3 466.2h-17v-17.3h17v17.3ZM221.3 466.2h-17v-17.3h17v17.3ZM102.3 466.2h-17v-17.3h17v17.3ZM85.3 466.2h-17v-17.3h17v17.3ZM68.3 466.2h-17v-17.3h17v17.3ZM493.3 449h-17v-17.3h17v17.2Z"/><path d="M476.3 449h-17v-17.3h17v17.2ZM459.3 449h-17v-17.3h17v17.2ZM323.3 449h-17v-17.3h17v17.2ZM306.3 449h-17v-17.3h17v17.2ZM289.3 449h-17v-17.3h17v17.2ZM255.3 449h-17v-17.3h17v17.2ZM238.3 449h-17v-17.3h17v17.2ZM221.3 449h-17v-17.3h17v17.2ZM85.3 449h-17v-17.3h17v17.2ZM68.3 449h-17v-17.3h17v17.2ZM51.3 449h-17v-17.3h17v17.2ZM510.3 431.7h-17v-17.3h17v17.3ZM493.3 431.7h-17v-17.3h17v17.3ZM476.3 431.7h-17v-17.3h17v17.3ZM391.3 431.7h-17v-17.3h17v17.3ZM374.3 431.7h-17v-17.3h17v17.3ZM357.3 431.7h-17v-17.3h17v17.3ZM306.3 431.7h-17v-17.3h17v17.3ZM289.3 431.7h-17v-17.3h17v17.3ZM255.3 431.7h-17v-17.3h17v17.3ZM238.3 431.7h-17v-17.3h17v17.3ZM187.3 431.7h-17v-17.3h17v17.3ZM170.3 431.7h-17v-17.3h17v17.3ZM153.3 431.7h-17v-17.3h17v17.3ZM68.3 431.7h-17v-17.3h17v17.3ZM51.3 431.7h-17v-17.3h17v17.3ZM34.3 431.7h-17v-17.3h17v17.3ZM527.3 414.4h-17V397h17v17.3Z"/><path d="M510.3 414.4h-17V397h17v17.3ZM493.3 414.4h-17V397h17v17.3ZM374.3 414.4h-17V397h17v17.3ZM357.3 414.4h-17V397h17v17.3ZM340.3 414.4h-17V397h17v17.3ZM289.3 414.4h-17V397h17v17.3ZM255.3 414.4h-17V397h17v17.3ZM204.3 414.4h-17V397h17v17.3ZM187.3 414.4h-17V397h17v17.3ZM170.3 414.4h-17V397h17v17.3ZM51.3 414.4h-17V397h17v17.3ZM34.3 414.4h-17V397h17v17.3Z"/><path d="M17.3 414.4H.3V397h17v17.3ZM527.3 397.1h-17V380h17V397Z"/><path d="M510.3 397.1h-17V380h17V397ZM357.3 397.1h-17V380h17V397ZM340.3 397.1h-17V380h17V397ZM323.3 397.1h-17V380h17V397ZM221.3 397.1h-17V380h17V397ZM204.3 397.1h-17V380h17V397ZM187.3 397.1h-17V380h17V397ZM34.3 397.1h-17V380h17V397Z"/><path d="M17.3 397.1H.3V380h17V397ZM527.3 379.9h-17v-17.3h17v17.3ZM442.3 379.9h-17v-17.3h17v17.3ZM289.3 379.9h-17v-17.3h17v17.3ZM255.3 379.9h-17v-17.3h17v17.3ZM102.3 379.9h-17v-17.3h17v17.3ZM17.3 379.9H.3v-17.3h17v17.3Z"/><path d="M442.3 362.6h-17v-17.3h17v17.3ZM425.3 362.6h-17v-17.3h17v17.3ZM306.3 362.6h-17v-17.3h17v17.3ZM289.3 362.6h-17v-17.3h17v17.3ZM255.3 362.6h-17v-17.3h17v17.3ZM238.3 362.6h-17v-17.3h17v17.3ZM119.3 362.6h-17v-17.3h17v17.3ZM102.3 362.6h-17v-17.3h17v17.3ZM442.3 345.3h-17v-17.2h17v17.2ZM425.3 345.3h-17v-17.2h17v17.2ZM408.3 345.3h-17v-17.2h17v17.2ZM323.3 345.3h-17v-17.2h17v17.2ZM306.3 345.3h-17v-17.2h17v17.2ZM238.3 345.3h-17v-17.2h17v17.2ZM221.3 345.3h-17v-17.2h17v17.2ZM136.3 345.3h-17v-17.2h17v17.2ZM119.3 345.3h-17v-17.2h17v17.2ZM102.3 345.3h-17v-17.2h17v17.2ZM425.3 328h-17v-17.2h17v17.3ZM408.3 328h-17v-17.2h17v17.3ZM340.3 328h-17v-17.2h17v17.3ZM323.3 328h-17v-17.2h17v17.3ZM221.3 328h-17v-17.2h17v17.3ZM204.3 328h-17v-17.2h17v17.3ZM136.3 328h-17v-17.2h17v17.3ZM119.3 328h-17v-17.2h17v17.3ZM493.3 310.8h-17v-17.3h17v17.3ZM476.3 310.8h-17v-17.3h17v17.3ZM459.3 310.8h-17v-17.3h17v17.3ZM408.3 310.8h-17v-17.3h17v17.3ZM357.3 310.8h-17v-17.3h17v17.3ZM340.3 310.8h-17v-17.3h17v17.3ZM204.3 310.8h-17v-17.3h17v17.3ZM187.3 310.8h-17v-17.3h17v17.3ZM136.3 310.8h-17v-17.3h17v17.3ZM85.3 310.8h-17v-17.3h17v17.3ZM68.3 310.8h-17v-17.3h17v17.3ZM51.3 310.8h-17v-17.3h17v17.3ZM544.3 293.5h-17v-17.2h17v17.2ZM476.3 293.5h-17v-17.2h17v17.2ZM459.3 293.5h-17v-17.2h17v17.2ZM442.3 293.5h-17v-17.2h17v17.2ZM374.3 293.5h-17v-17.2h17v17.2ZM357.3 293.5h-17v-17.2h17v17.2ZM187.3 293.5h-17v-17.2h17v17.2ZM170.3 293.5h-17v-17.2h17v17.2ZM102.3 293.5h-17v-17.2h17v17.2ZM85.3 293.5h-17v-17.2h17v17.2ZM68.3 293.5h-17v-17.2h17v17.2ZM544.3 276.3h-17V259h17v17.3ZM527.3 276.3h-17V259h17v17.3ZM459.3 276.3h-17V259h17v17.3ZM442.3 276.3h-17V259h17v17.3ZM425.3 276.3h-17V259h17v17.3ZM391.3 276.3h-17V259h17v17.3ZM374.3 276.3h-17V259h17v17.3ZM272.3 276.3h-17V259h17v17.3ZM170.3 276.3h-17V259h17v17.3ZM153.3 276.3h-17V259h17v17.3ZM119.3 276.3h-17V259h17v17.3ZM102.3 276.3h-17V259h17v17.3ZM85.3 276.3h-17V259h17v17.3ZM17 259H0v-17.3h17V259ZM34.3 259h-17v-17.3h17V259ZM17 276.3H0V259h17v17.3ZM17 241.7H0v-17.2h17v17.2ZM544.3 259h-17v-17.3h17V259ZM527.3 259h-17v-17.3h17V259Z"/><path d="M510.3 259h-17v-17.3h17V259ZM289.3 259h-17v-17.3h17V259ZM272.3 259h-17v-17.3h17V259ZM255.3 259h-17v-17.3h17V259ZM544.3 241.7h-17v-17.2h17v17.2ZM527.3 241.7h-17v-17.2h17v17.2ZM459.3 241.7h-17v-17.2h17v17.2ZM442.3 241.7h-17v-17.2h17v17.2ZM425.3 241.7h-17v-17.2h17v17.2ZM391.3 241.7h-17v-17.2h17v17.2ZM374.3 241.7h-17v-17.2h17v17.2ZM272.3 241.7h-17v-17.2h17v17.2ZM170.3 241.7h-17v-17.2h17v17.2ZM153.3 241.7h-17v-17.2h17v17.2ZM119.3 241.7h-17v-17.2h17v17.2ZM102.3 241.7h-17v-17.2h17v17.2ZM85.3 241.7h-17v-17.2h17v17.2ZM544.3 224.5h-17v-17.3h17v17.3ZM476.3 224.5h-17v-17.3h17v17.3ZM459.3 224.5h-17v-17.3h17v17.3ZM442.3 224.5h-17v-17.3h17v17.3ZM374.3 224.5h-17v-17.3h17v17.3ZM357.3 224.5h-17v-17.3h17v17.3ZM187.3 224.5h-17v-17.3h17v17.3ZM170.3 224.5h-17v-17.3h17v17.3ZM102.3 224.5h-17v-17.3h17v17.3ZM85.3 224.5h-17v-17.3h17v17.3ZM68.3 224.5h-17v-17.3h17v17.3ZM493.3 207.2h-17v-17.3h17v17.3ZM476.3 207.2h-17v-17.3h17v17.3ZM459.3 207.2h-17v-17.3h17v17.3ZM408.3 207.2h-17v-17.3h17v17.3ZM357.3 207.2h-17v-17.3h17v17.3ZM340.3 207.2h-17v-17.3h17v17.3ZM204.3 207.2h-17v-17.3h17v17.3ZM187.3 207.2h-17v-17.3h17v17.3ZM136.3 207.2h-17v-17.3h17v17.3ZM85.3 207.2h-17v-17.3h17v17.3ZM68.3 207.2h-17v-17.3h17v17.3ZM51.3 207.2h-17v-17.3h17v17.3ZM425.3 190h-17v-17.3h17v17.2Z"/><path d="M408.3 190h-17v-17.3h17v17.2ZM340.3 190h-17v-17.3h17v17.2ZM323.3 190h-17v-17.3h17v17.2ZM221.3 190h-17v-17.3h17v17.2ZM204.3 190h-17v-17.3h17v17.2ZM136.3 190h-17v-17.3h17v17.2ZM119.3 190h-17v-17.3h17v17.2ZM442.3 172.7h-17v-17.3h17v17.3ZM425.3 172.7h-17v-17.3h17v17.3ZM408.3 172.7h-17v-17.3h17v17.3ZM323.3 172.7h-17v-17.3h17v17.3ZM306.3 172.7h-17v-17.3h17v17.3ZM238.3 172.7h-17v-17.3h17v17.3ZM221.3 172.7h-17v-17.3h17v17.3ZM136.3 172.7h-17v-17.3h17v17.3ZM119.3 172.7h-17v-17.3h17v17.3ZM102.3 172.7h-17v-17.3h17v17.3Z"/><path d="M442.3 155.4h-17v-17.3h17v17.3ZM425.3 155.4h-17v-17.3h17v17.3ZM306.3 155.4h-17v-17.3h17v17.3ZM289.3 155.4h-17v-17.3h17v17.3ZM255.3 155.4h-17v-17.3h17v17.3ZM238.3 155.4h-17v-17.3h17v17.3ZM119.3 155.4h-17v-17.3h17v17.3ZM102.3 155.4h-17v-17.3h17v17.3ZM442.3 138.1h-17V121h17V138ZM289.3 138.1h-17V121h17V138ZM255.3 138.1h-17V121h17V138ZM102.3 138.1h-17V121h17V138ZM527.3 120.9h-17v-17.3h17v17.3ZM17.3 120.9H.3v-17.3h17v17.3ZM527.3 103.6h-17V86.3h17v17.3Z"/><path d="M510.3 103.6h-17V86.3h17v17.3ZM357.3 103.6h-17V86.3h17v17.3ZM340.3 103.6h-17V86.3h17v17.3ZM323.3 103.6h-17V86.3h17v17.3ZM221.3 103.6h-17V86.3h17v17.3ZM204.3 103.6h-17V86.3h17v17.3ZM187.3 103.6h-17V86.3h17v17.3ZM34.3 103.6h-17V86.3h17v17.3Z"/><path d="M17.3 103.6H.3V86.3h17v17.3ZM527.3 86.3h-17V69.1h17v17.2Z"/><path d="M510.3 86.3h-17V69.1h17v17.2ZM493.3 86.3h-17V69.1h17v17.2ZM374.3 86.3h-17V69.1h17v17.2ZM357.3 86.3h-17V69.1h17v17.2ZM340.3 86.3h-17V69.1h17v17.2ZM289.3 86.3h-17V69.1h17v17.2ZM255.3 86.3h-17V69.1h17v17.2ZM204.3 86.3h-17V69.1h17v17.2ZM187.3 86.3h-17V69.1h17v17.2ZM170.3 86.3h-17V69.1h17v17.2ZM51.3 86.3h-17V69.1h17v17.2ZM34.3 86.3h-17V69.1h17v17.2Z"/><path d="M17.3 86.3H.3V69.1h17v17.2ZM510.3 69h-17V51.9h17v17.3ZM493.3 69h-17V51.9h17v17.3ZM476.3 69h-17V51.9h17v17.3ZM391.3 69h-17V51.9h17v17.3ZM374.3 69h-17V51.9h17v17.3ZM357.3 69h-17V51.9h17v17.3ZM306.3 69h-17V51.9h17v17.3ZM289.3 69h-17V51.9h17v17.3ZM255.3 69h-17V51.9h17v17.3ZM238.3 69h-17V51.9h17v17.3ZM187.3 69h-17V51.9h17v17.3ZM170.3 69h-17V51.9h17v17.3ZM153.3 69h-17V51.9h17v17.3ZM68.3 69h-17V51.9h17v17.3ZM51.3 69h-17V51.9h17v17.3Z"/><path d="M34.3 69h-17V51.9h17v17.3ZM493.3 51.8h-17V34.5h17v17.3ZM476.3 51.8h-17V34.5h17v17.3ZM459.3 51.8h-17V34.5h17v17.3ZM323.3 51.8h-17V34.5h17v17.3ZM306.3 51.8h-17V34.5h17v17.3ZM289.3 51.8h-17V34.5h17v17.3ZM255.3 51.8h-17V34.5h17v17.3ZM238.3 51.8h-17V34.5h17v17.3ZM221.3 51.8h-17V34.5h17v17.3ZM85.3 51.8h-17V34.5h17v17.3ZM68.3 51.8h-17V34.5h17v17.3ZM51.3 51.8h-17V34.5h17v17.3ZM544.3 34.5h-17V17.3h17v17.2ZM476.3 34.5h-17V17.3h17v17.2ZM459.3 34.5h-17V17.3h17v17.2ZM442.3 34.5h-17V17.3h17v17.2ZM323.3 34.5h-17V17.3h17v17.2ZM306.3 34.5h-17V17.3h17v17.2ZM238.3 34.5h-17V17.3h17v17.2ZM221.3 34.5h-17V17.3h17v17.2ZM102.3 34.5h-17V17.3h17v17.2ZM85.3 34.5h-17V17.3h17v17.2ZM68.3 34.5h-17V17.3h17v17.2ZM544.3 17.3h-17V0h17v17.3ZM527.3 17.3h-17V0h17v17.3ZM459.3 17.3h-17V0h17v17.3ZM442.3 17.3h-17V0h17v17.3ZM425.3 17.3h-17V0h17v17.3ZM323.3 17.3h-17V0h17v17.3ZM221.3 17.3h-17V0h17v17.3ZM119.3 17.3h-17V0h17v17.3ZM102.3 17.3h-17V0h17v17.3ZM85.3 17.3h-17V0h17v17.3ZM17.3 17.3H.3V0h17v17.3Z"/></g><defs><clipPath id="a"><path fill="#fff" d="M0 0h545v484H0z"/></clipPath></defs></svg>