<svg xmlns="http://www.w3.org/2000/svg" width="250" height="408" fill="none"><g fill="#FCF9F9" fill-opacity=".1" clip-path="url(#a)"><path d="M186.4 407.5H172V393h14.3v14.5ZM100.5 407.5H86.2V393h14.3v14.5ZM86.2 407.5H71.9V393h14.3v14.5Z"/><path d="M71.9 407.5H57.5V393H72v14.5ZM14.6 407.5H.3V393h14.3v14.5ZM258 393h-14.4v-14.6H258V393ZM200.7 393h-14.3v-14.6h14.3V393Z"/><path d="M186.4 393H172v-14.6h14.3V393ZM86.2 393H71.9v-14.6h14.3V393Z"/><path d="M71.9 393H57.5v-14.6H72V393ZM57.5 393H43.2v-14.6h14.3V393ZM258 378.4h-14.4V364H258v14.5ZM243.6 378.4h-14.3V364h14.3v14.5ZM215 378.4h-14.3V364H215v14.5ZM200.7 378.4h-14.3V364h14.3v14.5Z"/><path d="M186.4 378.4H172V364h14.3v14.5ZM71.9 378.4H57.5V364H72v14.5ZM57.5 378.4H43.2V364h14.3v14.5Z"/><path d="M43.2 378.4H29V364h14.3v14.5ZM258 363.9h-14.4v-14.6H258V364ZM243.6 363.9h-14.3v-14.6h14.3V364ZM215 363.9h-14.3v-14.6H215V364ZM200.7 363.9h-14.3v-14.6h14.3V364ZM157.8 363.9h-14.4v-14.6h14.4V364ZM143.4 363.9h-14.3v-14.6h14.3V364ZM129.1 363.9h-14.3v-14.6h14.3V364ZM57.5 363.9H43.2v-14.6h14.3V364Z"/><path d="M43.2 363.9H29v-14.6h14.3V364ZM29 363.9H14.5v-14.6h14.3V364ZM243.6 349.3h-14.3v-14.5h14.3v14.5ZM215 349.3h-14.3v-14.5H215v14.5ZM172 349.3h-14.2v-14.5H172v14.5ZM157.8 349.3h-14.4v-14.5h14.4v14.5ZM143.4 349.3h-14.3v-14.5h14.3v14.5Z"/><path d="M43.2 349.3H29v-14.5h14.3v14.5ZM29 349.3H14.5v-14.5h14.3v14.5Z"/><path d="M14.6 349.3H.3v-14.5h14.3v14.5ZM186.4 334.8H172v-14.6h14.3v14.6ZM172 334.8h-14.2v-14.6H172v14.6ZM157.8 334.8h-14.4v-14.6h14.4v14.6ZM29 334.8H14.5v-14.6h14.3v14.6Z"/><path d="M14.6 334.8H.3v-14.6h14.3v14.6ZM243.6 320.2h-14.3v-14.5h14.3v14.5ZM215 320.2h-14.3v-14.5H215v14.5ZM86.2 320.2H71.9v-14.5h14.3v14.5ZM14.6 320.2H.3v-14.5h14.3v14.5ZM258 305.7h-14.4V291H258v14.6ZM243.6 305.7h-14.3V291h14.3v14.6ZM215 305.7h-14.3V291H215v14.6ZM200.7 305.7h-14.3V291h14.3v14.6ZM100.5 305.7H86.2V291h14.3v14.6ZM86.2 305.7H71.9V291h14.3v14.6Z"/><path d="M258 291.1h-14.4v-14.6H258v14.6ZM200.7 291.1h-14.3v-14.6h14.3v14.6Z"/><path d="M186.4 291.1H172v-14.6h14.3v14.6ZM114.8 291.1h-14.3v-14.6h14.3v14.6ZM100.5 291.1H86.2v-14.6h14.3v14.6ZM86.2 291.1H71.9v-14.6h14.3v14.6ZM186.4 276.5H172V262h14.3v14.5ZM172 276.5h-14.2V262H172v14.5ZM114.8 276.5h-14.3V262h14.3v14.5ZM100.5 276.5H86.2V262h14.3v14.5ZM172 262h-14.2v-14.6H172V262ZM157.8 262h-14.4v-14.6h14.4V262ZM114.8 262h-14.3v-14.6h14.3V262ZM71.9 262H57.5v-14.6H72V262ZM57.5 262H43.2v-14.6h14.3V262Z"/><path d="M43.2 262H29v-14.6h14.3V262ZM157.8 247.4h-14.4V233h14.4v14.5ZM143.4 247.4h-14.3V233h14.3v14.5ZM86.2 247.4H71.9V233h14.3v14.5Z"/><path d="M71.9 247.4H57.5V233H72v14.5ZM57.5 247.4H43.2V233h14.3v14.5ZM229.3 232.9H215v-14.6h14.3V233ZM143.4 232.9h-14.3v-14.6h14.3V233ZM129.1 232.9h-14.3v-14.6h14.3V233ZM100.5 232.9H86.2v-14.6h14.3V233ZM86.2 232.9H71.9v-14.6h14.3V233Z"/><path d="M71.9 232.9H57.5v-14.6H72V233ZM14.3 218.3H0v-14.5h14.3v14.5ZM29 218.3H14.5v-14.5h14.3v14.5ZM14.3 232.9H0v-14.6h14.3V233ZM14.3 203.8H0v-14.6h14.3v14.6ZM243.6 218.3h-14.3v-14.5h14.3v14.5Z"/><path d="M229.3 218.3H215v-14.5h14.3v14.5ZM215 218.3h-14.3v-14.5H215v14.5ZM229.3 203.8H215v-14.6h14.3v14.6ZM143.4 203.8h-14.3v-14.6h14.3v14.6ZM129.1 203.8h-14.3v-14.6h14.3v14.6ZM100.5 203.8H86.2v-14.6h14.3v14.6ZM86.2 203.8H71.9v-14.6h14.3v14.6Z"/><path d="M71.9 203.8H57.5v-14.6H72v14.6ZM157.8 189.2h-14.4v-14.5h14.4v14.5ZM143.4 189.2h-14.3v-14.5h14.3v14.5ZM86.2 189.2H71.9v-14.5h14.3v14.5Z"/><path d="M71.9 189.2H57.5v-14.5H72v14.5ZM57.5 189.2H43.2v-14.5h14.3v14.5ZM172 174.7h-14.2V160H172v14.6ZM157.8 174.7h-14.4V160h14.4v14.6ZM114.8 174.7h-14.3V160h14.3v14.6ZM71.9 174.7H57.5V160H72v14.6ZM57.5 174.7H43.2V160h14.3v14.6Z"/><path d="M43.2 174.7H29V160h14.3v14.6ZM186.4 160.1H172v-14.5h14.3V160ZM172 160.1h-14.2v-14.5H172V160ZM114.8 160.1h-14.3v-14.5h14.3V160ZM100.5 160.1H86.2v-14.5h14.3V160ZM258 145.6h-14.4V131H258v14.6ZM200.7 145.6h-14.3V131h14.3v14.6Z"/><path d="M186.4 145.6H172V131h14.3v14.6ZM114.8 145.6h-14.3V131h14.3v14.6ZM100.5 145.6H86.2V131h14.3v14.6ZM86.2 145.6H71.9V131h14.3v14.6ZM258 131h-14.4v-14.6H258V131ZM243.6 131h-14.3v-14.6h14.3V131ZM215 131h-14.3v-14.6H215V131ZM200.7 131h-14.3v-14.6h14.3V131ZM100.5 131H86.2v-14.6h14.3V131ZM86.2 131H71.9v-14.6h14.3V131Z"/><path d="M243.6 116.4h-14.3V102h14.3v14.5ZM215 116.4h-14.3V102H215v14.5ZM86.2 116.4H71.9V102h14.3v14.5ZM14.6 101.9H.3V87.3h14.3V102ZM186.4 87.3H172V72.8h14.3v14.5ZM172 87.3h-14.2V72.8H172v14.5ZM157.8 87.3h-14.4V72.8h14.4v14.5ZM29 87.3H14.5V72.8h14.3v14.5Z"/><path d="M14.6 87.3H.3V72.8h14.3v14.5ZM243.6 72.8h-14.3V58.2h14.3v14.6ZM215 72.8h-14.3V58.2H215v14.6ZM172 72.8h-14.2V58.2H172v14.6ZM157.8 72.8h-14.4V58.2h14.4v14.6ZM143.4 72.8h-14.3V58.2h14.3v14.6ZM43.2 72.8H29V58.2h14.3v14.6ZM29 72.8H14.5V58.2h14.3v14.6Z"/><path d="M14.6 72.8H.3V58.2h14.3v14.6ZM258 58.2h-14.4V43.7H258v14.5ZM243.6 58.2h-14.3V43.7h14.3v14.5ZM215 58.2h-14.3V43.7H215v14.5ZM200.7 58.2h-14.3V43.7h14.3v14.5ZM157.8 58.2h-14.4V43.7h14.4v14.5ZM143.4 58.2h-14.3V43.7h14.3v14.5ZM129.1 58.2h-14.3V43.7h14.3v14.5ZM57.5 58.2H43.2V43.7h14.3v14.5Z"/><path d="M43.2 58.2H29V43.7h14.3v14.5ZM29 58.2H14.5V43.7h14.3v14.5ZM258 43.7h-14.4V29H258v14.6ZM243.6 43.7h-14.3V29h14.3v14.6ZM215 43.7h-14.3V29H215v14.6ZM200.7 43.7h-14.3V29h14.3v14.6Z"/><path d="M186.4 43.7H172V29h14.3v14.6ZM71.9 43.7H57.5V29H72v14.6ZM57.5 43.7H43.2V29h14.3v14.6Z"/><path d="M43.2 43.7H29V29h14.3v14.6ZM258 29.1h-14.4V14.6H258V29ZM200.7 29.1h-14.3V14.6h14.3V29Z"/><path d="M186.4 29.1H172V14.6h14.3V29ZM86.2 29.1H71.9V14.6h14.3V29Z"/><path d="M71.9 29.1H57.5V14.6H72V29ZM57.5 29.1H43.2V14.6h14.3V29ZM186.4 14.6H172V0h14.3v14.6ZM100.5 14.6H86.2V0h14.3v14.6ZM86.2 14.6H71.9V0h14.3v14.6Z"/><path d="M71.9 14.6H57.5V0H72v14.6ZM14.6 14.6H.3V0h14.3v14.6Z"/></g><defs><clipPath id="a"><path fill="#fff" d="M0 0h459v408H0z"/></clipPath></defs></svg>