<svg xmlns="http://www.w3.org/2000/svg" width="274" height="251" fill="none"><g fill="#1C2225" fill-opacity=".2" clip-path="url(#a)"><path d="M280.7 258.6h-10.6v-10.8h10.6v10.8ZM206.5 258.6h-10.6v-10.8h10.6v10.8ZM195.9 258.6h-10.6v-10.8h10.6v10.8ZM185.3 258.6h-10.6v-10.8h10.6v10.8ZM153.5 258.6h-10.6v-10.8h10.6v10.8ZM132.3 258.6h-10.6v-10.8h10.6v10.8ZM100.5 258.6H89.9v-10.8h10.6v10.8ZM89.9 258.6H79.3v-10.8h10.6v10.8ZM79.3 258.6H68.6v-10.8h10.7v10.8ZM5 258.6H-5.6v-10.8H5v10.8ZM195.9 247.8h-10.6V237h10.6v10.8ZM185.3 247.8h-10.6V237h10.6v10.8ZM174.7 247.8H164V237h10.6v10.8ZM111 247.8h-10.5V237H111v10.8ZM100.5 247.8H89.9V237h10.6v10.8ZM89.9 247.8H79.3V237h10.6v10.8ZM249 237h-10.7v-10.8H249V237ZM153.5 237h-10.6v-10.8h10.6V237ZM132.3 237h-10.6v-10.8h10.6V237ZM36.8 237H26.2v-10.8h10.6V237ZM249 226.2h-10.7v-10.7H249v10.7ZM238.3 226.2h-10.6v-10.7h10.6v10.7ZM164 226.2h-10.5v-10.7H164v10.7ZM153.5 226.2h-10.6v-10.7h10.6v10.7ZM132.3 226.2h-10.6v-10.7h10.6v10.7ZM121.7 226.2H111v-10.7h10.6v10.7ZM47.4 226.2H36.8v-10.7h10.6v10.7ZM36.8 226.2H26.2v-10.7h10.6v10.7ZM249 215.5h-10.7v-10.8H249v10.8ZM238.3 215.5h-10.6v-10.8h10.6v10.8ZM227.7 215.5h-10.6v-10.8h10.6v10.8ZM174.7 215.5H164v-10.8h10.6v10.8ZM164 215.5h-10.5v-10.8H164v10.8ZM121.7 215.5H111v-10.8h10.6v10.8ZM111 215.5h-10.5v-10.8H111v10.8ZM58 215.5H47.4v-10.8H58v10.8ZM47.4 215.5H36.8v-10.8h10.6v10.8ZM36.8 215.5H26.2v-10.8h10.6v10.8ZM238.3 204.7h-10.6v-10.8h10.6v10.8ZM227.7 204.7h-10.6v-10.8h10.6v10.8ZM185.3 204.7h-10.6v-10.8h10.6v10.8ZM174.7 204.7H164v-10.8h10.6v10.8ZM111 204.7h-10.5v-10.8H111v10.8ZM100.5 204.7H89.9v-10.8h10.6v10.8ZM58 204.7H47.4v-10.8H58v10.8ZM47.4 204.7H36.8v-10.8h10.6v10.8ZM280.7 194h-10.6v-10.8h10.6v10.7Z"/><path d="M270.1 194h-10.6v-10.8h10.6v10.7Z"/><path d="M259.5 194H249v-10.8h10.6v10.7ZM227.7 194h-10.6v-10.8h10.6v10.7ZM195.9 194h-10.6v-10.8h10.6v10.7ZM185.3 194h-10.6v-10.8h10.6v10.7ZM100.5 194H89.9v-10.8h10.6v10.7ZM89.9 194H79.3v-10.8h10.6v10.7ZM58 194H47.4v-10.8H58v10.7ZM26.2 194H15.6v-10.8h10.6v10.7ZM15.6 194H5v-10.8h10.6v10.7ZM5 194H-5.6v-10.8H5v10.7ZM270.1 183.2h-10.6v-10.8h10.6v10.8Z"/><path d="M259.5 183.2H249v-10.8h10.6v10.8ZM249 183.2h-10.7v-10.8H249v10.8ZM206.5 183.2h-10.6v-10.8h10.6v10.8ZM195.9 183.2h-10.6v-10.8h10.6v10.8ZM89.9 183.2H79.3v-10.8h10.6v10.8ZM79.3 183.2H68.6v-10.8h10.7v10.8ZM36.8 183.2H26.2v-10.8h10.6v10.8ZM26.2 183.2H15.6v-10.8h10.6v10.8ZM15.6 183.2H5v-10.8h10.6v10.8Z"/><path d="M259.5 172.4H249v-10.8h10.6v10.8ZM249 172.4h-10.7v-10.8H249v10.8ZM238.3 172.4h-10.6v-10.8h10.6v10.8ZM217.1 172.4h-10.6v-10.8h10.6v10.8ZM206.5 172.4h-10.6v-10.8h10.6v10.8ZM142.9 172.4h-10.6v-10.8h10.6v10.8ZM79.3 172.4H68.6v-10.8h10.7v10.8ZM68.6 172.4H58v-10.8h10.6v10.8ZM47.4 172.4H36.8v-10.8h10.6v10.8ZM36.8 172.4H26.2v-10.8h10.6v10.8ZM26.2 172.4H15.6v-10.8h10.6v10.8ZM153.5 161.6h-10.6v-10.8h10.6v10.8ZM142.9 161.6h-10.6v-10.8h10.6v10.8ZM132.3 161.6h-10.6v-10.8h10.6v10.8ZM259.5 150.8H249v-10.7h10.6v10.7ZM249 150.8h-10.7v-10.7H249v10.7ZM238.3 150.8h-10.6v-10.7h10.6v10.7ZM217.1 150.8h-10.6v-10.7h10.6v10.7ZM206.5 150.8h-10.6v-10.7h10.6v10.7Z"/><path d="M142.9 150.8h-10.6v-10.7h10.6v10.7ZM79.3 150.8H68.6v-10.7h10.7v10.7ZM68.6 150.8H58v-10.7h10.6v10.7ZM47.4 150.8H36.8v-10.7h10.6v10.7ZM36.8 150.8H26.2v-10.7h10.6v10.7ZM26.2 150.8H15.6v-10.7h10.6v10.7ZM270.1 140h-10.6v-10.7h10.6V140Z"/><path d="M259.5 140H249v-10.7h10.6V140ZM249 140h-10.7v-10.7H249V140ZM206.5 140h-10.6v-10.7h10.6V140ZM195.9 140h-10.6v-10.7h10.6V140ZM89.9 140H79.3v-10.7h10.6V140ZM79.3 140H68.6v-10.7h10.7V140ZM36.8 140H26.2v-10.7h10.6V140ZM26.2 140H15.6v-10.7h10.6V140ZM15.6 140H5v-10.7h10.6V140ZM280.7 129.3h-10.6v-10.8h10.6v10.8Z"/><path d="M270.1 129.3h-10.6v-10.8h10.6v10.8Z"/><path d="M259.5 129.3H249v-10.8h10.6v10.8ZM227.7 129.3h-10.6v-10.8h10.6v10.8ZM195.9 129.3h-10.6v-10.8h10.6v10.8ZM185.3 129.3h-10.6v-10.8h10.6v10.8ZM100.5 129.3H89.9v-10.8h10.6v10.8ZM89.9 129.3H79.3v-10.8h10.6v10.8ZM58 129.3H47.4v-10.8H58v10.8ZM26.2 129.3H15.6v-10.8h10.6v10.8ZM15.6 129.3H5v-10.8h10.6v10.8ZM5 129.3H-5.6v-10.8H5v10.8ZM238.3 118.5h-10.6v-10.8h10.6v10.8ZM227.7 118.5h-10.6v-10.8h10.6v10.8ZM185.3 118.5h-10.6v-10.8h10.6v10.8ZM174.7 118.5H164v-10.8h10.6v10.8ZM111 118.5h-10.5v-10.8H111v10.8ZM100.5 118.5H89.9v-10.8h10.6v10.8ZM58 118.5H47.4v-10.8H58v10.8ZM47.4 118.5H36.8v-10.8h10.6v10.8ZM249 107.7h-10.7V97H249v10.7ZM238.3 107.7h-10.6V97h10.6v10.7ZM227.7 107.7h-10.6V97h10.6v10.7ZM174.7 107.7H164V97h10.6v10.7ZM164 107.7h-10.5V97H164v10.7ZM121.7 107.7H111V97h10.6v10.7ZM111 107.7h-10.5V97H111v10.7ZM58 107.7H47.4V97H58v10.7ZM47.4 107.7H36.8V97h10.6v10.7ZM36.8 107.7H26.2V97h10.6v10.7ZM249 97h-10.7V86.2H249V97ZM238.3 97h-10.6V86.2h10.6V97ZM164 97h-10.5V86.2H164V97ZM153.5 97h-10.6V86.2h10.6V97ZM132.3 97h-10.6V86.2h10.6V97ZM121.7 97H111V86.2h10.6V97ZM47.4 97H36.8V86.2h10.6V97ZM36.8 97H26.2V86.2h10.6V97ZM249 86.2h-10.7V75.4H249v10.8ZM153.5 86.2h-10.6V75.4h10.6v10.8ZM132.3 86.2h-10.6V75.4h10.6v10.8ZM36.8 86.2H26.2V75.4h10.6v10.8ZM195.9 64.6h-10.6V54h10.6v10.7ZM185.3 64.6h-10.6V54h10.6v10.7ZM174.7 64.6H164V54h10.6v10.7ZM111 64.6h-10.5V54H111v10.7ZM100.5 64.6H89.9V54h10.6v10.7ZM89.9 64.6H79.3V54h10.6v10.7ZM280.7 53.9h-10.6V43h10.6v10.8ZM206.5 53.9h-10.6V43h10.6v10.8ZM195.9 53.9h-10.6V43h10.6v10.8ZM185.3 53.9h-10.6V43h10.6v10.8ZM153.5 53.9h-10.6V43h10.6v10.8ZM132.3 53.9h-10.6V43h10.6v10.8ZM100.5 53.9H89.9V43h10.6v10.8ZM89.9 53.9H79.3V43h10.6v10.8ZM79.3 53.9H68.6V43h10.7v10.8ZM5 53.9H-5.6V43H5v10.8Z"/><path d="M280.7 43h-10.6V32.4h10.6v10.8Z"/><path d="M270.1 43h-10.6V32.4h10.6v10.8ZM217.1 43h-10.6V32.4h10.6v10.8ZM206.5 43h-10.6V32.4h10.6v10.8ZM195.9 43h-10.6V32.4h10.6v10.8ZM164 43h-10.5V32.4H164v10.8ZM153.5 43h-10.6V32.4h10.6v10.8ZM132.3 43h-10.6V32.4h10.6v10.8ZM121.7 43H111V32.4h10.6v10.8ZM89.9 43H79.3V32.4h10.6v10.8ZM79.3 43H68.6V32.4h10.7v10.8ZM68.6 43H58V32.4h10.6v10.8ZM15.6 43H5V32.4h10.6v10.8ZM5 43H-5.6V32.4H5v10.8ZM280.7 32.3h-10.6V21.5h10.6v10.8Z"/><path d="M270.1 32.3h-10.6V21.5h10.6v10.8Z"/><path d="M259.5 32.3H249V21.5h10.6v10.8ZM174.7 32.3H164V21.5h10.6v10.8ZM164 32.3h-10.5V21.5H164v10.8ZM153.5 32.3h-10.6V21.5h10.6v10.8ZM132.3 32.3h-10.6V21.5h10.6v10.8ZM121.7 32.3H111V21.5h10.6v10.8ZM111 32.3h-10.5V21.5H111v10.8ZM26.2 32.3H15.6V21.5h10.6v10.8ZM15.6 32.3H5V21.5h10.6v10.8ZM5 32.3H-5.6V21.5H5v10.8ZM270.1 21.5h-10.6V10.8h10.6v10.7Z"/><path d="M259.5 21.5H249V10.8h10.6v10.7ZM249 21.5h-10.7V10.8H249v10.7ZM174.7 21.5H164V10.8h10.6v10.7ZM164 21.5h-10.5V10.8H164v10.7ZM121.7 21.5H111V10.8h10.6v10.7ZM111 21.5h-10.5V10.8H111v10.7ZM36.8 21.5H26.2V10.8h10.6v10.7ZM26.2 21.5H15.6V10.8h10.6v10.7ZM15.6 21.5H5V10.8h10.6v10.7ZM259.5 10.8H249V0h10.6v10.8ZM249 10.8h-10.7V0H249v10.8ZM238.3 10.8h-10.6V0h10.6v10.8ZM174.7 10.8H164V0h10.6v10.8ZM111 10.8h-10.5V0H111v10.8ZM47.4 10.8H36.8V0h10.6v10.8ZM36.8 10.8H26.2V0h10.6v10.8ZM26.2 10.8H15.6V0h10.6v10.8Z"/></g><defs><clipPath id="a"><path fill="#fff" d="M-27 0h340v302H-27z"/></clipPath></defs></svg>