<svg xmlns="http://www.w3.org/2000/svg" width="380" height="364" fill="none"><g fill="#1C2225" fill-opacity=".2" clip-path="url(#a)"><path d="M369.3 379.9h-17v-17.3h17v17.3ZM216.3 379.9h-17v-17.3h17v17.3ZM182.3 379.9h-17v-17.3h17v17.3ZM29.3 379.9h-17v-17.3h17v17.3Z"/><path d="M369.3 362.6h-17v-17.3h17v17.3ZM352.3 362.6h-17v-17.3h17v17.3ZM233.3 362.6h-17v-17.3h17v17.3ZM216.3 362.6h-17v-17.3h17v17.3ZM182.3 362.6h-17v-17.3h17v17.3ZM165.3 362.6h-17v-17.3h17v17.3ZM46.3 362.6h-17v-17.3h17v17.3Z"/><path d="M29.3 362.6h-17v-17.3h17v17.3ZM369.3 345.3h-17v-17.2h17v17.2ZM352.3 345.3h-17v-17.2h17v17.2ZM335.3 345.3h-17v-17.2h17v17.2ZM250.3 345.3h-17v-17.2h17v17.2ZM233.3 345.3h-17v-17.2h17v17.2ZM165.3 345.3h-17v-17.2h17v17.2ZM148.3 345.3h-17v-17.2h17v17.2ZM63.3 345.3h-17v-17.2h17v17.2ZM46.3 345.3h-17v-17.2h17v17.2Z"/><path d="M29.3 345.3h-17v-17.2h17v17.2ZM352.3 328h-17v-17.2h17v17.3ZM335.3 328h-17v-17.2h17v17.3ZM267.3 328h-17v-17.2h17v17.3ZM250.3 328h-17v-17.2h17v17.3ZM148.3 328h-17v-17.2h17v17.3ZM131.3 328h-17v-17.2h17v17.3ZM63.3 328h-17v-17.2h17v17.3ZM46.3 328h-17v-17.2h17v17.3ZM386.3 310.8h-17v-17.3h17v17.3ZM335.3 310.8h-17v-17.3h17v17.3ZM284.3 310.8h-17v-17.3h17v17.3ZM267.3 310.8h-17v-17.3h17v17.3ZM131.3 310.8h-17v-17.3h17v17.3ZM114.3 310.8h-17v-17.3h17v17.3ZM63.3 310.8h-17v-17.3h17v17.3ZM12.3 310.8h-17v-17.3h17v17.3ZM386.3 293.5h-17v-17.2h17v17.2ZM369.3 293.5h-17v-17.2h17v17.2ZM301.3 293.5h-17v-17.2h17v17.2ZM284.3 293.5h-17v-17.2h17v17.2ZM114.3 293.5h-17v-17.2h17v17.2ZM97.3 293.5h-17v-17.2h17v17.2ZM29.3 293.5h-17v-17.2h17v17.2ZM12.3 293.5h-17v-17.2h17v17.2ZM386.3 276.3h-17V259h17v17.3ZM369.3 276.3h-17V259h17v17.3ZM352.3 276.3h-17V259h17v17.3ZM318.3 276.3h-17V259h17v17.3ZM301.3 276.3h-17V259h17v17.3ZM199.3 276.3h-17V259h17v17.3ZM97.3 276.3h-17V259h17v17.3ZM80.3 276.3h-17V259h17v17.3ZM46.3 276.3h-17V259h17v17.3Z"/><path d="M29.3 276.3h-17V259h17v17.3ZM12.3 276.3h-17V259h17v17.3ZM216.3 259h-17v-17.3h17V259ZM199.3 259h-17v-17.3h17V259ZM182.3 259h-17v-17.3h17V259ZM386.3 241.7h-17v-17.2h17v17.2ZM369.3 241.7h-17v-17.2h17v17.2ZM352.3 241.7h-17v-17.2h17v17.2ZM318.3 241.7h-17v-17.2h17v17.2ZM301.3 241.7h-17v-17.2h17v17.2ZM199.3 241.7h-17v-17.2h17v17.2ZM97.3 241.7h-17v-17.2h17v17.2ZM80.3 241.7h-17v-17.2h17v17.2ZM46.3 241.7h-17v-17.2h17v17.2Z"/><path d="M29.3 241.7h-17v-17.2h17v17.2ZM12.3 241.7h-17v-17.2h17v17.2ZM386.3 224.5h-17v-17.3h17v17.3ZM369.3 224.5h-17v-17.3h17v17.3ZM301.3 224.5h-17v-17.3h17v17.3ZM284.3 224.5h-17v-17.3h17v17.3ZM114.3 224.5h-17v-17.3h17v17.3ZM97.3 224.5h-17v-17.3h17v17.3ZM29.3 224.5h-17v-17.3h17v17.3ZM12.3 224.5h-17v-17.3h17v17.3ZM386.3 207.2h-17v-17.3h17v17.3ZM335.3 207.2h-17v-17.3h17v17.3ZM284.3 207.2h-17v-17.3h17v17.3ZM267.3 207.2h-17v-17.3h17v17.3ZM131.3 207.2h-17v-17.3h17v17.3ZM114.3 207.2h-17v-17.3h17v17.3ZM63.3 207.2h-17v-17.3h17v17.3ZM12.3 207.2h-17v-17.3h17v17.3ZM352.3 190h-17v-17.3h17v17.2Z"/><path d="M335.3 190h-17v-17.3h17v17.2ZM267.3 190h-17v-17.3h17v17.2ZM250.3 190h-17v-17.3h17v17.2ZM148.3 190h-17v-17.3h17v17.2ZM131.3 190h-17v-17.3h17v17.2ZM63.3 190h-17v-17.3h17v17.2ZM46.3 190h-17v-17.3h17v17.2ZM369.3 172.7h-17v-17.3h17v17.3ZM352.3 172.7h-17v-17.3h17v17.3ZM335.3 172.7h-17v-17.3h17v17.3ZM250.3 172.7h-17v-17.3h17v17.3ZM233.3 172.7h-17v-17.3h17v17.3ZM165.3 172.7h-17v-17.3h17v17.3ZM148.3 172.7h-17v-17.3h17v17.3ZM63.3 172.7h-17v-17.3h17v17.3ZM46.3 172.7h-17v-17.3h17v17.3Z"/><path d="M29.3 172.7h-17v-17.3h17v17.3ZM369.3 155.4h-17v-17.3h17v17.3ZM352.3 155.4h-17v-17.3h17v17.3ZM233.3 155.4h-17v-17.3h17v17.3ZM216.3 155.4h-17v-17.3h17v17.3ZM182.3 155.4h-17v-17.3h17v17.3ZM165.3 155.4h-17v-17.3h17v17.3Z"/><path d="M46.3 155.4h-17v-17.3h17v17.3Z"/><path d="M29.3 155.4h-17v-17.3h17v17.3ZM369.3 138.1h-17V121h17V138ZM216.3 138.1h-17V121h17V138ZM182.3 138.1h-17V121h17V138ZM29.3 138.1h-17V121h17V138ZM284.3 103.6h-17V86.3h17v17.3ZM267.3 103.6h-17V86.3h17v17.3ZM250.3 103.6h-17V86.3h17v17.3ZM148.3 103.6h-17V86.3h17v17.3ZM131.3 103.6h-17V86.3h17v17.3ZM114.3 103.6h-17V86.3h17v17.3ZM301.3 86.3h-17V69.1h17v17.2ZM284.3 86.3h-17V69.1h17v17.2ZM267.3 86.3h-17V69.1h17v17.2ZM216.3 86.3h-17V69.1h17v17.2ZM182.3 86.3h-17V69.1h17v17.2ZM131.3 86.3h-17V69.1h17v17.2ZM114.3 86.3h-17V69.1h17v17.2ZM97.3 86.3h-17V69.1h17v17.2ZM318.3 69h-17V51.9h17v17.3Z"/><path d="M301.3 69h-17V51.9h17v17.3ZM284.3 69h-17V51.9h17v17.3ZM233.3 69h-17V51.9h17v17.3ZM216.3 69h-17V51.9h17v17.3ZM182.3 69h-17V51.9h17v17.3ZM165.3 69h-17V51.9h17v17.3ZM114.3 69h-17V51.9h17v17.3ZM97.3 69h-17V51.9h17v17.3ZM80.3 69h-17V51.9h17v17.3ZM386.3 51.8h-17V34.5h17v17.3ZM250.3 51.8h-17V34.5h17v17.3ZM233.3 51.8h-17V34.5h17v17.3ZM216.3 51.8h-17V34.5h17v17.3ZM182.3 51.8h-17V34.5h17v17.3ZM165.3 51.8h-17V34.5h17v17.3ZM148.3 51.8h-17V34.5h17v17.3ZM12.3 51.8h-17V34.5h17v17.3ZM386.3 34.5h-17V17.3h17v17.2ZM369.3 34.5h-17V17.3h17v17.2ZM250.3 34.5h-17V17.3h17v17.2ZM233.3 34.5h-17V17.3h17v17.2ZM165.3 34.5h-17V17.3h17v17.2ZM148.3 34.5h-17V17.3h17v17.2ZM29.3 34.5h-17V17.3h17v17.2ZM12.3 34.5h-17V17.3h17v17.2ZM386.3 17.3h-17V0h17v17.3ZM369.3 17.3h-17V0h17v17.3ZM352.3 17.3h-17V0h17v17.3ZM250.3 17.3h-17V0h17v17.3ZM148.3 17.3h-17V0h17v17.3ZM46.3 17.3h-17V0h17v17.3Z"/><path d="M29.3 17.3h-17V0h17v17.3ZM12.3 17.3h-17V0h17v17.3Z"/></g><defs><clipPath id="a"><path fill="#fff" d="M-73 0h545v484H-73z"/></clipPath></defs></svg>