<svg xmlns="http://www.w3.org/2000/svg" width="595" height="528" fill="none"><g fill="#ECD979" clip-path="url(#a)"><path d="M594.202 527.411h-18.557v-18.836h18.557v18.836ZM575.644 527.411h-18.557v-18.836h18.557v18.836ZM501.414 527.411h-18.557v-18.836h18.557v18.836Z"/><path d="M482.857 527.411H464.3v-18.836h18.557v18.836ZM464.299 527.411h-18.557v-18.836h18.557v18.836ZM352.954 527.411h-18.557v-18.836h18.557v18.836ZM241.614 527.411h-18.557v-18.836h18.557v18.836ZM130.269 527.411h-18.558v-18.836h18.558v18.836Z"/><path d="M111.712 527.411H93.154v-18.836h18.558v18.836ZM93.154 527.411H74.596v-18.836h18.558v18.836ZM18.924 527.411H.366v-18.836h18.558v18.836ZM594.202 508.575h-18.557v-18.836h18.557v18.836ZM519.972 508.575h-18.557v-18.836h18.557v18.836ZM501.414 508.575h-18.557v-18.836h18.557v18.836Z"/><path d="M482.857 508.575H464.3v-18.836h18.557v18.836ZM352.954 508.575h-18.557v-18.836h18.557v18.836ZM334.397 508.575h-18.558v-18.836h18.558v18.836ZM260.172 508.575h-18.558v-18.836h18.558v18.836ZM241.614 508.575h-18.557v-18.836h18.557v18.836ZM111.712 508.575H93.154v-18.836h18.558v18.836ZM93.154 508.575H74.596v-18.836h18.558v18.836Z"/><path d="M74.597 508.575H56.039v-18.836h18.558v18.836ZM538.529 489.739h-18.557v-18.836h18.557v18.836ZM519.972 489.739h-18.557v-18.836h18.557v18.836ZM501.414 489.739h-18.557v-18.836h18.557v18.836ZM352.954 489.739h-18.557v-18.836h18.557v18.836ZM334.397 489.739h-18.558v-18.836h18.558v18.836Z"/><path d="M315.84 489.739h-18.558v-18.836h18.558v18.836ZM278.729 489.739h-18.557v-18.836h18.557v18.836Z"/><path d="M260.172 489.739h-18.558v-18.836h18.558v18.836ZM241.614 489.739h-18.557v-18.836h18.557v18.836ZM93.154 489.739H74.596v-18.836h18.558v18.836Z"/><path d="M74.597 489.739H56.039v-18.836h18.558v18.836Z"/><path d="M56.039 489.739H37.48v-18.836H56.04v18.836ZM557.087 470.903h-18.558v-18.836h18.558v18.836ZM538.529 470.903h-18.557v-18.836h18.557v18.836ZM519.972 470.903h-18.557v-18.836h18.557v18.836ZM427.184 470.903h-18.557v-18.836h18.557v18.836ZM408.627 470.903h-18.558v-18.836h18.558v18.836ZM390.069 470.903h-18.557v-18.836h18.557v18.836ZM334.397 470.903h-18.558v-18.836h18.558v18.836Z"/><path d="M315.84 470.903h-18.558v-18.836h18.558v18.836ZM278.729 470.903h-18.557v-18.836h18.557v18.836Z"/><path d="M260.172 470.903h-18.558v-18.836h18.558v18.836ZM204.499 470.903h-18.558v-18.836h18.558v18.836Z"/><path d="M185.942 470.903h-18.558v-18.836h18.558v18.836ZM167.384 470.903h-18.558v-18.836h18.558v18.836ZM74.597 470.903H56.039v-18.836h18.558v18.836Z"/><path d="M56.039 470.903H37.48v-18.836H56.04v18.836Z"/><path d="M37.482 470.903H18.924v-18.836h18.558v18.836ZM575.644 452.067h-18.557v-18.836h18.557v18.836ZM557.087 452.067h-18.558v-18.836h18.558v18.836ZM538.529 452.067h-18.557v-18.836h18.557v18.836ZM408.627 452.067h-18.558v-18.836h18.558v18.836ZM390.069 452.067h-18.557v-18.836h18.557v18.836ZM371.512 452.067h-18.557v-18.836h18.557v18.836ZM315.84 452.067h-18.558v-18.836h18.558v18.836ZM278.729 452.067h-18.557v-18.836h18.557v18.836ZM223.057 452.067h-18.558v-18.836h18.558v18.836ZM204.499 452.067h-18.558v-18.836h18.558v18.836Z"/><path d="M185.942 452.067h-18.558v-18.836h18.558v18.836ZM56.039 452.067H37.48v-18.836H56.04v18.836Z"/><path d="M37.482 452.067H18.924v-18.836h18.558v18.836ZM18.924 452.067H.366v-18.836h18.558v18.836ZM575.644 433.231h-18.557v-18.837h18.557v18.837ZM557.087 433.231h-18.558v-18.837h18.558v18.837ZM390.069 433.23h-18.557v-18.836h18.557v18.836ZM371.512 433.231h-18.557v-18.837h18.557v18.837ZM352.954 433.231h-18.557v-18.837h18.557v18.837ZM241.614 433.231h-18.557v-18.837h18.557v18.837ZM223.057 433.231h-18.558v-18.837h18.558v18.837ZM204.499 433.231h-18.558v-18.837h18.558v18.837ZM37.482 433.231H18.924v-18.837h18.558v18.837ZM18.924 433.231H.366v-18.837h18.558v18.837ZM575.644 414.394h-18.557v-18.836h18.557v18.836ZM482.857 414.394H464.3v-18.836h18.557v18.836ZM315.84 414.395h-18.558v-18.837h18.558v18.837ZM278.729 414.394h-18.557v-18.836h18.557v18.836ZM111.712 414.394H93.154v-18.836h18.558v18.836ZM18.924 414.394H.366v-18.836h18.558v18.836ZM482.857 395.558H464.3v-18.836h18.557v18.836ZM464.299 395.558h-18.557v-18.836h18.557v18.836ZM334.397 395.558h-18.558v-18.836h18.558v18.836Z"/><path d="M315.84 395.558h-18.558v-18.836h18.558v18.836ZM278.729 395.558h-18.557v-18.836h18.557v18.836Z"/><path d="M260.172 395.558h-18.558v-18.836h18.558v18.836ZM130.269 395.558h-18.558v-18.836h18.558v18.836Z"/><path d="M111.712 395.558H93.154v-18.836h18.558v18.836ZM482.857 376.722H464.3v-18.836h18.557v18.836ZM464.299 376.722h-18.557v-18.836h18.557v18.836Z"/><path d="M445.742 376.722h-18.557v-18.836h18.557v18.836ZM352.954 376.722h-18.557v-18.836h18.557v18.836ZM334.397 376.722h-18.558v-18.836h18.558v18.836ZM260.172 376.722h-18.558v-18.836h18.558v18.836ZM241.614 376.722h-18.557v-18.836h18.557v18.836ZM148.827 376.722h-18.558v-18.836h18.558v18.836ZM130.269 376.722h-18.558v-18.836h18.558v18.836Z"/><path d="M111.712 376.722H93.154v-18.836h18.558v18.836ZM464.299 357.886h-18.557V339.05h18.557v18.836Z"/><path d="M445.742 357.886h-18.557V339.05h18.557v18.836ZM371.512 357.886h-18.557V339.05h18.557v18.836ZM352.954 357.886h-18.557V339.05h18.557v18.836ZM241.614 357.886h-18.557V339.05h18.557v18.836ZM223.057 357.886h-18.558V339.05h18.558v18.836ZM148.827 357.886h-18.558V339.05h18.558v18.836ZM130.269 357.886h-18.558V339.05h18.558v18.836ZM538.529 339.05h-18.557v-18.836h18.557v18.836ZM519.972 339.05h-18.557v-18.836h18.557v18.836ZM501.414 339.05h-18.557v-18.836h18.557v18.836ZM445.742 339.05h-18.557v-18.836h18.557v18.836ZM390.069 339.05h-18.557v-18.836h18.557v18.836ZM371.512 339.05h-18.557v-18.836h18.557v18.836ZM223.057 339.05h-18.558v-18.836h18.558v18.836ZM204.499 339.05h-18.558v-18.836h18.558v18.836ZM148.827 339.05h-18.558v-18.836h18.558v18.836ZM93.154 339.05H74.596v-18.836h18.558v18.836Z"/><path d="M74.597 339.05H56.039v-18.836h18.558v18.836Z"/><path d="M56.039 339.05H37.48v-18.836H56.04v18.836ZM594.202 320.214h-18.557v-18.836h18.557v18.836ZM519.972 320.214h-18.557v-18.836h18.557v18.836ZM501.414 320.214h-18.557v-18.836h18.557v18.836Z"/><path d="M482.857 320.214H464.3v-18.836h18.557v18.836ZM408.627 320.214h-18.558v-18.836h18.558v18.836ZM390.069 320.214h-18.557v-18.836h18.557v18.836ZM204.499 320.214h-18.558v-18.836h18.558v18.836Z"/><path d="M185.942 320.214h-18.558v-18.836h18.558v18.836ZM111.712 320.214H93.154v-18.836h18.558v18.836ZM93.154 320.214H74.596v-18.836h18.558v18.836Z"/><path d="M74.597 320.214H56.039v-18.836h18.558v18.836ZM594.202 301.378h-18.557v-18.836h18.557v18.836ZM575.644 301.378h-18.557v-18.836h18.557v18.836ZM501.414 301.378h-18.557v-18.836h18.557v18.836Z"/><path d="M482.857 301.378H464.3v-18.836h18.557v18.836ZM464.299 301.378h-18.557v-18.836h18.557v18.836ZM427.184 301.378h-18.557v-18.836h18.557v18.836ZM408.627 301.378h-18.558v-18.836h18.558v18.836ZM297.287 301.378h-18.558v-18.836h18.558v18.836ZM185.942 301.378h-18.558v-18.836h18.558v18.836ZM167.384 301.378h-18.558v-18.836h18.558v18.836ZM130.269 301.378h-18.558v-18.836h18.558v18.836Z"/><path d="M111.712 301.378H93.154v-18.836h18.558v18.836ZM93.154 301.378H74.596v-18.836h18.558v18.836ZM18.558 282.542H0v-18.836h18.558v18.836ZM37.482 282.542H18.924v-18.836h18.558v18.836ZM18.558 301.378H0v-18.836h18.558v18.836Z"/><path d="M18.558 263.706H0v-18.837h18.558v18.837ZM594.202 282.542h-18.557v-18.836h18.557v18.836ZM575.644 282.542h-18.557v-18.836h18.557v18.836ZM557.087 282.542h-18.558v-18.836h18.558v18.836ZM315.84 282.542h-18.558v-18.837h18.558v18.837Z"/><path d="M297.287 282.542h-18.558v-18.836h18.558v18.836ZM278.729 282.542h-18.557v-18.836h18.557v18.836ZM594.202 263.706h-18.557v-18.837h18.557v18.837ZM575.644 263.706h-18.557v-18.837h18.557v18.837ZM501.414 263.706h-18.557v-18.837h18.557v18.837Z"/><path d="M482.857 263.706H464.3v-18.837h18.557v18.837ZM464.299 263.706h-18.557v-18.837h18.557v18.837ZM427.184 263.706h-18.557v-18.837h18.557v18.837ZM408.627 263.706h-18.558v-18.837h18.558v18.837ZM297.287 263.706h-18.558v-18.837h18.558v18.837ZM185.942 263.706h-18.558v-18.837h18.558v18.837ZM167.384 263.706h-18.558v-18.837h18.558v18.837ZM130.269 263.706h-18.558v-18.837h18.558v18.837Z"/><path d="M111.712 263.706H93.154v-18.837h18.558v18.837ZM93.154 263.706H74.596v-18.837h18.558v18.837ZM594.202 244.869h-18.557v-18.836h18.557v18.836ZM519.972 244.869h-18.557v-18.836h18.557v18.836ZM501.414 244.869h-18.557v-18.836h18.557v18.836Z"/><path d="M482.857 244.869H464.3v-18.836h18.557v18.836ZM408.627 244.869h-18.558v-18.836h18.558v18.836ZM390.069 244.87h-18.557v-18.836h18.557v18.836ZM204.499 244.869h-18.558v-18.836h18.558v18.836Z"/><path d="M185.942 244.869h-18.558v-18.836h18.558v18.836ZM111.712 244.869H93.154v-18.836h18.558v18.836ZM93.154 244.869H74.596v-18.836h18.558v18.836Z"/><path d="M74.597 244.869H56.039v-18.836h18.558v18.836ZM538.529 226.033h-18.557v-18.836h18.557v18.836ZM519.972 226.033h-18.557v-18.836h18.557v18.836ZM501.414 226.033h-18.557v-18.836h18.557v18.836ZM445.742 226.033h-18.557v-18.836h18.557v18.836ZM390.069 226.033h-18.557v-18.836h18.557v18.836ZM371.512 226.033h-18.557v-18.836h18.557v18.836ZM223.057 226.033h-18.558v-18.836h18.558v18.836ZM204.499 226.033h-18.558v-18.836h18.558v18.836ZM148.827 226.033h-18.558v-18.836h18.558v18.836ZM93.154 226.033H74.596v-18.836h18.558v18.836Z"/><path d="M74.597 226.033H56.039v-18.836h18.558v18.836Z"/><path d="M56.039 226.033H37.48v-18.836H56.04v18.836ZM464.299 207.197h-18.557v-18.836h18.557v18.836Z"/><path d="M445.742 207.197h-18.557v-18.836h18.557v18.836ZM371.512 207.197h-18.557v-18.836h18.557v18.836ZM352.954 207.197h-18.557v-18.836h18.557v18.836ZM241.614 207.197h-18.557v-18.836h18.557v18.836ZM223.057 207.197h-18.558v-18.836h18.558v18.836ZM148.827 207.197h-18.558v-18.836h18.558v18.836ZM130.269 207.197h-18.558v-18.836h18.558v18.836ZM482.857 188.361H464.3v-18.836h18.557v18.836ZM464.299 188.361h-18.557v-18.836h18.557v18.836Z"/><path d="M445.742 188.361h-18.557v-18.836h18.557v18.836ZM352.954 188.361h-18.557v-18.836h18.557v18.836ZM334.397 188.361h-18.558v-18.836h18.558v18.836ZM260.172 188.361h-18.558v-18.836h18.558v18.836ZM241.614 188.361h-18.557v-18.836h18.557v18.836ZM148.827 188.361h-18.558v-18.836h18.558v18.836ZM130.269 188.361h-18.558v-18.836h18.558v18.836Z"/><path d="M111.712 188.361H93.154v-18.836h18.558v18.836ZM482.857 169.525H464.3v-18.836h18.557v18.836ZM464.299 169.525h-18.557v-18.836h18.557v18.836ZM334.397 169.525h-18.558v-18.836h18.558v18.836Z"/><path d="M315.84 169.525h-18.558v-18.836h18.558v18.836ZM278.729 169.525h-18.557v-18.836h18.557v18.836Z"/><path d="M260.172 169.525h-18.558v-18.836h18.558v18.836ZM130.269 169.525h-18.558v-18.836h18.558v18.836Z"/><path d="M111.712 169.525H93.154v-18.836h18.558v18.836ZM482.857 150.689H464.3v-18.836h18.557v18.836ZM315.84 150.689h-18.558v-18.836h18.558v18.836ZM278.729 150.689h-18.557v-18.836h18.557v18.836ZM111.712 150.689H93.154v-18.836h18.558v18.836ZM575.644 131.853h-18.557v-18.837h18.557v18.837ZM18.924 131.853H.366v-18.837h18.558v18.837ZM575.644 113.016h-18.557V94.18h18.557v18.836ZM557.087 113.016h-18.558V94.18h18.558v18.836ZM390.069 113.017h-18.557V94.18h18.557v18.837ZM371.512 113.016h-18.557V94.18h18.557v18.836ZM352.954 113.016h-18.557V94.18h18.557v18.836ZM241.614 113.016h-18.557V94.18h18.557v18.836ZM223.057 113.016h-18.558V94.18h18.558v18.836ZM204.499 113.016h-18.558V94.18h18.558v18.836ZM37.482 113.016H18.924V94.18h18.558v18.836ZM18.924 113.016H.366V94.18h18.558v18.836ZM575.644 94.18h-18.557V75.344h18.557V94.18ZM557.087 94.18h-18.558V75.344h18.558V94.18ZM538.529 94.18h-18.557V75.344h18.557V94.18ZM408.627 94.18h-18.558V75.344h18.558V94.18ZM390.069 94.18h-18.557V75.344h18.557V94.18ZM371.512 94.18h-18.557V75.344h18.557V94.18ZM315.84 94.18h-18.558V75.344h18.558V94.18ZM278.729 94.18h-18.557V75.344h18.557V94.18ZM223.057 94.18h-18.558V75.344h18.558V94.18ZM204.499 94.18h-18.558V75.344h18.558V94.18Z"/><path d="M185.942 94.18h-18.558V75.344h18.558V94.18ZM56.039 94.18H37.48V75.344H56.04V94.18Z"/><path d="M37.482 94.18H18.924V75.344h18.558V94.18ZM18.924 94.18H.366V75.344h18.558V94.18ZM557.087 75.344h-18.558V56.508h18.558v18.836ZM538.529 75.344h-18.557V56.508h18.557v18.836ZM519.972 75.344h-18.557V56.508h18.557v18.836ZM427.184 75.344h-18.557V56.508h18.557v18.836ZM408.627 75.344h-18.558V56.508h18.558v18.836ZM390.069 75.344h-18.557V56.508h18.557v18.836ZM334.397 75.344h-18.558V56.508h18.558v18.836Z"/><path d="M315.84 75.344h-18.558V56.508h18.558v18.836ZM278.729 75.344h-18.557V56.508h18.557v18.836Z"/><path d="M260.172 75.344h-18.558V56.508h18.558v18.836ZM204.499 75.344h-18.558V56.508h18.558v18.836Z"/><path d="M185.942 75.344h-18.558V56.508h18.558v18.836ZM167.384 75.344h-18.558V56.508h18.558v18.836ZM74.597 75.344H56.039V56.508h18.558v18.836Z"/><path d="M56.039 75.344H37.48V56.508H56.04v18.836Z"/><path d="M37.482 75.344H18.924V56.508h18.558v18.836ZM538.529 56.508h-18.557V37.672h18.557v18.836ZM519.972 56.508h-18.557V37.672h18.557v18.836ZM501.414 56.508h-18.557V37.672h18.557v18.836ZM352.954 56.508h-18.557V37.672h18.557v18.836ZM334.397 56.508h-18.558V37.672h18.558v18.836Z"/><path d="M315.84 56.508h-18.558V37.672h18.558v18.836ZM278.729 56.508h-18.557V37.672h18.557v18.836Z"/><path d="M260.172 56.508h-18.558V37.672h18.558v18.836ZM241.614 56.508h-18.557V37.672h18.557v18.836ZM93.154 56.508H74.596V37.672h18.558v18.836Z"/><path d="M74.597 56.508H56.039V37.672h18.558v18.836Z"/><path d="M56.039 56.508H37.48V37.672H56.04v18.836ZM594.202 37.672h-18.557V18.836h18.557v18.836ZM519.972 37.672h-18.557V18.836h18.557v18.836ZM501.414 37.672h-18.557V18.836h18.557v18.836Z"/><path d="M482.857 37.672H464.3V18.836h18.557v18.836ZM352.954 37.672h-18.557V18.836h18.557v18.836ZM334.397 37.672h-18.558V18.836h18.558v18.836ZM260.172 37.672h-18.558V18.836h18.558v18.836ZM241.614 37.672h-18.557V18.836h18.557v18.836ZM111.712 37.672H93.154V18.836h18.558v18.836ZM93.154 37.672H74.596V18.836h18.558v18.836Z"/><path d="M74.597 37.672H56.039V18.836h18.558v18.836ZM594.202 18.836h-18.557V0h18.557v18.836ZM575.644 18.836h-18.557V0h18.557v18.836ZM501.414 18.836h-18.557V0h18.557v18.836Z"/><path d="M482.857 18.836H464.3V0h18.557v18.836ZM464.299 18.836h-18.557V0h18.557v18.836ZM352.954 18.836h-18.557V0h18.557v18.836ZM241.614 18.836h-18.557V0h18.557v18.836ZM130.269 18.836h-18.558V0h18.558v18.836Z"/><path d="M111.712 18.836H93.154V0h18.558v18.836ZM93.154 18.836H74.596V0h18.558v18.836ZM18.924 18.836H.366V0h18.558v18.836Z"/></g><defs><clipPath id="a"><path fill="#fff" d="M0 0h595v528H0z"/></clipPath></defs></svg>