<svg aria-hidden="true" style="position: absolute; width: 0; height: 0; overflow: hidden;" version="1.1" xmlns="http://www.w3.org/2000/svg" xmlns:xlink="http://www.w3.org/1999/xlink">
<defs>
<symbol id="icon-logo" viewBox="0 0 35 32">
<path d="M35.153 31.565h-1.098v-1.113h1.098v1.113z"></path>
<path d="M34.055 31.565h-1.098v-1.113h1.098v1.113z"></path>
<path d="M29.664 31.565h-1.098v-1.113h1.098v1.113z"></path>
<path d="M28.566 31.565h-1.098v-1.113h1.098v1.113z"></path>
<path d="M27.468 31.565h-1.098v-1.113h1.098v1.113z"></path>
<path d="M20.881 31.565h-1.098v-1.113h1.098v1.113z"></path>
<path d="M14.294 31.565h-1.098v-1.113h1.098v1.113z"></path>
<path d="M7.706 31.565h-1.098v-1.113h1.098v1.113z"></path>
<path d="M6.609 31.565h-1.098v-1.113h1.098v1.113z"></path>
<path d="M5.511 31.565h-1.098v-1.113h1.098v1.113z"></path>
<path d="M1.12 31.565h-1.098v-1.113h1.098v1.113z"></path>
<path d="M35.153 30.452h-1.098v-1.113h1.098v1.113z"></path>
<path d="M30.761 30.452h-1.098v-1.113h1.098v1.113z"></path>
<path d="M29.664 30.452h-1.098v-1.113h1.098v1.113z"></path>
<path d="M28.566 30.452h-1.098v-1.113h1.098v1.113z"></path>
<path d="M20.881 30.452h-1.098v-1.113h1.098v1.113z"></path>
<path d="M19.783 30.452h-1.098v-1.113h1.098v1.113z"></path>
<path d="M15.392 30.452h-1.098v-1.113h1.098v1.113z"></path>
<path d="M14.294 30.452h-1.098v-1.113h1.098v1.113z"></path>
<path d="M6.609 30.452h-1.098v-1.113h1.098v1.113z"></path>
<path d="M5.511 30.452h-1.098v-1.113h1.098v1.113z"></path>
<path d="M4.413 30.452h-1.098v-1.113h1.098v1.113z"></path>
<path d="M31.86 29.339h-1.098v-1.113h1.098v1.113z"></path>
<path d="M30.761 29.339h-1.098v-1.113h1.098v1.113z"></path>
<path d="M29.664 29.339h-1.098v-1.113h1.098v1.113z"></path>
<path d="M20.881 29.339h-1.098v-1.113h1.098v1.113z"></path>
<path d="M19.783 29.339h-1.098v-1.113h1.098v1.113z"></path>
<path d="M18.685 29.339h-1.098v-1.113h1.098v1.113z"></path>
<path d="M16.489 29.339h-1.098v-1.113h1.098v1.113z"></path>
<path d="M15.392 29.339h-1.098v-1.113h1.098v1.113z"></path>
<path d="M14.294 29.339h-1.098v-1.113h1.098v1.113z"></path>
<path d="M5.511 29.339h-1.098v-1.113h1.098v1.113z"></path>
<path d="M4.413 29.339h-1.098v-1.113h1.098v1.113z"></path>
<path d="M3.315 29.339h-1.098v-1.113h1.098v1.113z"></path>
<path d="M32.957 28.226h-1.098v-1.113h1.098v1.113z"></path>
<path d="M31.86 28.226h-1.098v-1.113h1.098v1.113z"></path>
<path d="M30.761 28.226h-1.098v-1.113h1.098v1.113z"></path>
<path d="M25.272 28.226h-1.098v-1.113h1.098v1.113z"></path>
<path d="M24.174 28.226h-1.098v-1.113h1.098v1.113z"></path>
<path d="M23.077 28.226h-1.098v-1.113h1.098v1.113z"></path>
<path d="M19.783 28.226h-1.098v-1.113h1.098v1.113z"></path>
<path d="M18.685 28.226h-1.098v-1.113h1.098v1.113z"></path>
<path d="M16.489 28.226h-1.098v-1.113h1.098v1.113z"></path>
<path d="M15.392 28.226h-1.098v-1.113h1.098v1.113z"></path>
<path d="M12.098 28.226h-1.098v-1.113h1.098v1.113z"></path>
<path d="M11 28.226h-1.098v-1.113h1.098v1.113z"></path>
<path d="M9.903 28.226h-1.098v-1.113h1.098v1.113z"></path>
<path d="M4.413 28.226h-1.098v-1.113h1.098v1.113z"></path>
<path d="M3.315 28.226h-1.098v-1.113h1.098v1.113z"></path>
<path d="M2.217 28.226h-1.098v-1.113h1.098v1.113z"></path>
<path d="M34.055 27.113h-1.098v-1.113h1.098v1.113z"></path>
<path d="M32.957 27.113h-1.098v-1.113h1.098v1.113z"></path>
<path d="M31.86 27.113h-1.098v-1.113h1.098v1.113z"></path>
<path d="M24.174 27.113h-1.098v-1.113h1.098v1.113z"></path>
<path d="M23.077 27.113h-1.098v-1.113h1.098v1.113z"></path>
<path d="M21.978 27.113h-1.098v-1.113h1.098v1.113z"></path>
<path d="M18.685 27.113h-1.098v-1.113h1.098v1.113z"></path>
<path d="M16.489 27.113h-1.098v-1.113h1.098v1.113z"></path>
<path d="M13.196 27.113h-1.098v-1.113h1.098v1.113z"></path>
<path d="M12.098 27.113h-1.098v-1.113h1.098v1.113z"></path>
<path d="M11 27.113h-1.098v-1.113h1.098v1.113z"></path>
<path d="M3.315 27.113h-1.098v-1.113h1.098v1.113z"></path>
<path d="M2.217 27.113h-1.098v-1.113h1.098v1.113z"></path>
<path d="M1.12 27.113h-1.098v-1.113h1.098v1.113z"></path>
<path d="M34.055 26h-1.098v-1.113h1.098v1.113z"></path>
<path d="M32.957 26h-1.098v-1.113h1.098v1.113z"></path>
<path d="M23.077 26h-1.098v-1.113h1.098v1.113z"></path>
<path d="M21.978 26h-1.098v-1.113h1.098v1.113z"></path>
<path d="M20.881 26h-1.098v-1.113h1.098v1.113z"></path>
<path d="M14.294 26h-1.098v-1.113h1.098v1.113z"></path>
<path d="M13.196 26h-1.098v-1.113h1.098v1.113z"></path>
<path d="M12.098 26h-1.098v-1.113h1.098v1.113z"></path>
<path d="M2.217 26h-1.098v-1.113h1.098v1.113z"></path>
<path d="M1.12 26h-1.098v-1.113h1.098v1.113z"></path>
<path d="M34.055 24.887h-1.098v-1.113h1.098v1.113z"></path>
<path d="M28.566 24.887h-1.098v-1.113h1.098v1.113z"></path>
<path d="M18.685 24.887h-1.098v-1.113h1.098v1.113z"></path>
<path d="M16.489 24.887h-1.098v-1.113h1.098v1.113z"></path>
<path d="M6.609 24.887h-1.098v-1.113h1.098v1.113z"></path>
<path d="M1.12 24.887h-1.098v-1.113h1.098v1.113z"></path>
<path d="M28.566 23.774h-1.098v-1.113h1.098v1.113z"></path>
<path d="M27.468 23.774h-1.098v-1.113h1.098v1.113z"></path>
<path d="M19.783 23.774h-1.098v-1.113h1.098v1.113z"></path>
<path d="M18.685 23.774h-1.098v-1.113h1.098v1.113z"></path>
<path d="M16.489 23.774h-1.098v-1.113h1.098v1.113z"></path>
<path d="M15.392 23.774h-1.098v-1.113h1.098v1.113z"></path>
<path d="M7.706 23.774h-1.098v-1.113h1.098v1.113z"></path>
<path d="M6.609 23.774h-1.098v-1.113h1.098v1.113z"></path>
<path d="M28.566 22.661h-1.098v-1.113h1.098v1.113z"></path>
<path d="M27.468 22.661h-1.098v-1.113h1.098v1.113z"></path>
<path d="M26.37 22.661h-1.098v-1.113h1.098v1.113z"></path>
<path d="M20.881 22.661h-1.098v-1.113h1.098v1.113z"></path>
<path d="M19.783 22.661h-1.098v-1.113h1.098v1.113z"></path>
<path d="M15.392 22.661h-1.098v-1.113h1.098v1.113z"></path>
<path d="M14.294 22.661h-1.098v-1.113h1.098v1.113z"></path>
<path d="M8.805 22.661h-1.098v-1.113h1.098v1.113z"></path>
<path d="M7.706 22.661h-1.098v-1.113h1.098v1.113z"></path>
<path d="M6.609 22.661h-1.098v-1.113h1.098v1.113z"></path>
<path d="M27.468 21.548h-1.098v-1.113h1.098v1.113z"></path>
<path d="M26.37 21.548h-1.098v-1.113h1.098v1.113z"></path>
<path d="M21.978 21.548h-1.098v-1.113h1.098v1.113z"></path>
<path d="M20.881 21.548h-1.098v-1.113h1.098v1.113z"></path>
<path d="M14.294 21.548h-1.098v-1.113h1.098v1.113z"></path>
<path d="M13.196 21.548h-1.098v-1.113h1.098v1.113z"></path>
<path d="M8.805 21.548h-1.098v-1.113h1.098v1.113z"></path>
<path d="M7.706 21.548h-1.098v-1.113h1.098v1.113z"></path>
<path d="M31.86 20.435h-1.098v-1.113h1.098v1.113z"></path>
<path d="M30.761 20.435h-1.098v-1.113h1.098v1.113z"></path>
<path d="M29.664 20.435h-1.098v-1.113h1.098v1.113z"></path>
<path d="M26.37 20.435h-1.098v-1.113h1.098v1.113z"></path>
<path d="M23.077 20.435h-1.098v-1.113h1.098v1.113z"></path>
<path d="M21.978 20.435h-1.098v-1.113h1.098v1.113z"></path>
<path d="M13.196 20.435h-1.098v-1.113h1.098v1.113z"></path>
<path d="M12.098 20.435h-1.098v-1.113h1.098v1.113z"></path>
<path d="M8.805 20.435h-1.098v-1.113h1.098v1.113z"></path>
<path d="M5.511 20.435h-1.098v-1.113h1.098v1.113z"></path>
<path d="M4.413 20.435h-1.098v-1.113h1.098v1.113z"></path>
<path d="M3.315 20.435h-1.098v-1.113h1.098v1.113z"></path>
<path d="M35.153 19.322h-1.098v-1.113h1.098v1.113z"></path>
<path d="M30.761 19.322h-1.098v-1.113h1.098v1.113z"></path>
<path d="M29.664 19.322h-1.098v-1.113h1.098v1.113z"></path>
<path d="M28.566 19.322h-1.098v-1.113h1.098v1.113z"></path>
<path d="M24.174 19.322h-1.098v-1.113h1.098v1.113z"></path>
<path d="M23.077 19.322h-1.098v-1.113h1.098v1.113z"></path>
<path d="M12.098 19.322h-1.098v-1.113h1.098v1.113z"></path>
<path d="M11 19.322h-1.098v-1.113h1.098v1.113z"></path>
<path d="M6.609 19.322h-1.098v-1.113h1.098v1.113z"></path>
<path d="M5.511 19.322h-1.098v-1.113h1.098v1.113z"></path>
<path d="M4.413 19.322h-1.098v-1.113h1.098v1.113z"></path>
<path d="M35.153 18.209h-1.098v-1.113h1.098v1.113z"></path>
<path d="M34.055 18.209h-1.098v-1.113h1.098v1.113z"></path>
<path d="M29.664 18.209h-1.098v-1.113h1.098v1.113z"></path>
<path d="M28.566 18.209h-1.098v-1.113h1.098v1.113z"></path>
<path d="M27.468 18.209h-1.098v-1.113h1.098v1.113z"></path>
<path d="M25.272 18.209h-1.098v-1.113h1.098v1.113z"></path>
<path d="M24.174 18.209h-1.098v-1.113h1.098v1.113z"></path>
<path d="M17.588 18.209h-1.098v-1.113h1.098v1.113z"></path>
<path d="M11 18.209h-1.098v-1.113h1.098v1.113z"></path>
<path d="M9.903 18.209h-1.098v-1.113h1.098v1.113z"></path>
<path d="M7.706 18.209h-1.098v-1.113h1.098v1.113z"></path>
<path d="M6.609 18.209h-1.098v-1.113h1.098v1.113z"></path>
<path d="M5.511 18.209h-1.098v-1.113h1.098v1.113z"></path>
<path d="M1.098 17.096h-1.098v-1.113h1.098v1.113z"></path>
<path d="M2.217 17.096h-1.098v-1.113h1.098v1.113z"></path>
<path d="M1.098 18.209h-1.098v-1.113h1.098v1.113z"></path>
<path d="M1.098 15.983h-1.098v-1.113h1.098v1.113z"></path>
<path d="M35.153 17.096h-1.098v-1.113h1.098v1.113z"></path>
<path d="M34.055 17.096h-1.098v-1.113h1.098v1.113z"></path>
<path d="M32.957 17.096h-1.098v-1.113h1.098v1.113z"></path>
<path d="M18.685 17.096h-1.098v-1.113h1.098v1.113z"></path>
<path d="M17.588 17.096h-1.098v-1.113h1.098v1.113z"></path>
<path d="M16.489 17.096h-1.098v-1.113h1.098v1.113z"></path>
<path d="M35.153 15.983h-1.098v-1.113h1.098v1.113z"></path>
<path d="M34.055 15.983h-1.098v-1.113h1.098v1.113z"></path>
<path d="M29.664 15.983h-1.098v-1.113h1.098v1.113z"></path>
<path d="M28.566 15.983h-1.098v-1.113h1.098v1.113z"></path>
<path d="M27.468 15.983h-1.098v-1.113h1.098v1.113z"></path>
<path d="M25.272 15.983h-1.098v-1.113h1.098v1.113z"></path>
<path d="M24.174 15.983h-1.098v-1.113h1.098v1.113z"></path>
<path d="M17.588 15.983h-1.098v-1.113h1.098v1.113z"></path>
<path d="M11 15.983h-1.098v-1.113h1.098v1.113z"></path>
<path d="M9.903 15.983h-1.098v-1.113h1.098v1.113z"></path>
<path d="M7.706 15.983h-1.098v-1.113h1.098v1.113z"></path>
<path d="M6.609 15.983h-1.098v-1.113h1.098v1.113z"></path>
<path d="M5.511 15.983h-1.098v-1.113h1.098v1.113z"></path>
<path d="M35.153 14.87h-1.098v-1.113h1.098v1.113z"></path>
<path d="M30.761 14.87h-1.098v-1.113h1.098v1.113z"></path>
<path d="M29.664 14.87h-1.098v-1.113h1.098v1.113z"></path>
<path d="M28.566 14.87h-1.098v-1.113h1.098v1.113z"></path>
<path d="M24.174 14.87h-1.098v-1.113h1.098v1.113z"></path>
<path d="M23.077 14.87h-1.098v-1.113h1.098v1.113z"></path>
<path d="M12.098 14.87h-1.098v-1.113h1.098v1.113z"></path>
<path d="M11 14.87h-1.098v-1.113h1.098v1.113z"></path>
<path d="M6.609 14.87h-1.098v-1.113h1.098v1.113z"></path>
<path d="M5.511 14.87h-1.098v-1.113h1.098v1.113z"></path>
<path d="M4.413 14.87h-1.098v-1.113h1.098v1.113z"></path>
<path d="M31.86 13.756h-1.098v-1.113h1.098v1.113z"></path>
<path d="M30.761 13.756h-1.098v-1.113h1.098v1.113z"></path>
<path d="M29.664 13.756h-1.098v-1.113h1.098v1.113z"></path>
<path d="M26.37 13.756h-1.098v-1.113h1.098v1.113z"></path>
<path d="M23.077 13.756h-1.098v-1.113h1.098v1.113z"></path>
<path d="M21.978 13.756h-1.098v-1.113h1.098v1.113z"></path>
<path d="M13.196 13.756h-1.098v-1.113h1.098v1.113z"></path>
<path d="M12.098 13.756h-1.098v-1.113h1.098v1.113z"></path>
<path d="M8.805 13.756h-1.098v-1.113h1.098v1.113z"></path>
<path d="M5.511 13.756h-1.098v-1.113h1.098v1.113z"></path>
<path d="M4.413 13.756h-1.098v-1.113h1.098v1.113z"></path>
<path d="M3.315 13.756h-1.098v-1.113h1.098v1.113z"></path>
<path d="M27.468 12.644h-1.098v-1.113h1.098v1.113z"></path>
<path d="M26.37 12.644h-1.098v-1.113h1.098v1.113z"></path>
<path d="M21.978 12.644h-1.098v-1.113h1.098v1.113z"></path>
<path d="M20.881 12.644h-1.098v-1.113h1.098v1.113z"></path>
<path d="M14.294 12.644h-1.098v-1.113h1.098v1.113z"></path>
<path d="M13.196 12.644h-1.098v-1.113h1.098v1.113z"></path>
<path d="M8.805 12.644h-1.098v-1.113h1.098v1.113z"></path>
<path d="M7.706 12.644h-1.098v-1.113h1.098v1.113z"></path>
<path d="M28.566 11.53h-1.098v-1.113h1.098v1.113z"></path>
<path d="M27.468 11.53h-1.098v-1.113h1.098v1.113z"></path>
<path d="M26.37 11.53h-1.098v-1.113h1.098v1.113z"></path>
<path d="M20.881 11.53h-1.098v-1.113h1.098v1.113z"></path>
<path d="M19.783 11.53h-1.098v-1.113h1.098v1.113z"></path>
<path d="M15.392 11.53h-1.098v-1.113h1.098v1.113z"></path>
<path d="M14.294 11.53h-1.098v-1.113h1.098v1.113z"></path>
<path d="M8.805 11.53h-1.098v-1.113h1.098v1.113z"></path>
<path d="M7.706 11.53h-1.098v-1.113h1.098v1.113z"></path>
<path d="M6.609 11.53h-1.098v-1.113h1.098v1.113z"></path>
<path d="M28.566 10.417h-1.098v-1.113h1.098v1.113z"></path>
<path d="M27.468 10.417h-1.098v-1.113h1.098v1.113z"></path>
<path d="M19.783 10.417h-1.098v-1.113h1.098v1.113z"></path>
<path d="M18.685 10.417h-1.098v-1.113h1.098v1.113z"></path>
<path d="M16.489 10.417h-1.098v-1.113h1.098v1.113z"></path>
<path d="M15.392 10.417h-1.098v-1.113h1.098v1.113z"></path>
<path d="M7.706 10.417h-1.098v-1.113h1.098v1.113z"></path>
<path d="M6.609 10.417h-1.098v-1.113h1.098v1.113z"></path>
<path d="M28.566 9.304h-1.098v-1.113h1.098v1.113z"></path>
<path d="M18.685 9.304h-1.098v-1.113h1.098v1.113z"></path>
<path d="M16.489 9.304h-1.098v-1.113h1.098v1.113z"></path>
<path d="M6.609 9.304h-1.098v-1.113h1.098v1.113z"></path>
<path d="M34.055 8.191h-1.098v-1.113h1.098v1.113z"></path>
<path d="M1.12 8.191h-1.098v-1.113h1.098v1.113z"></path>
<path d="M34.055 7.078h-1.098v-1.113h1.098v1.113z"></path>
<path d="M32.957 7.078h-1.098v-1.113h1.098v1.113z"></path>
<path d="M23.077 7.078h-1.098v-1.113h1.098v1.113z"></path>
<path d="M21.978 7.078h-1.098v-1.113h1.098v1.113z"></path>
<path d="M20.881 7.078h-1.098v-1.113h1.098v1.113z"></path>
<path d="M14.294 7.078h-1.098v-1.113h1.098v1.113z"></path>
<path d="M13.196 7.078h-1.098v-1.113h1.098v1.113z"></path>
<path d="M12.098 7.078h-1.098v-1.113h1.098v1.113z"></path>
<path d="M2.217 7.078h-1.098v-1.113h1.098v1.113z"></path>
<path d="M1.12 7.078h-1.098v-1.113h1.098v1.113z"></path>
<path d="M34.055 5.965h-1.098v-1.113h1.098v1.113z"></path>
<path d="M32.957 5.965h-1.098v-1.113h1.098v1.113z"></path>
<path d="M31.86 5.965h-1.098v-1.113h1.098v1.113z"></path>
<path d="M24.174 5.965h-1.098v-1.113h1.098v1.113z"></path>
<path d="M23.077 5.965h-1.098v-1.113h1.098v1.113z"></path>
<path d="M21.978 5.965h-1.098v-1.113h1.098v1.113z"></path>
<path d="M18.685 5.965h-1.098v-1.113h1.098v1.113z"></path>
<path d="M16.489 5.965h-1.098v-1.113h1.098v1.113z"></path>
<path d="M13.196 5.965h-1.098v-1.113h1.098v1.113z"></path>
<path d="M12.098 5.965h-1.098v-1.113h1.098v1.113z"></path>
<path d="M11 5.965h-1.098v-1.113h1.098v1.113z"></path>
<path d="M3.315 5.965h-1.098v-1.113h1.098v1.113z"></path>
<path d="M2.217 5.965h-1.098v-1.113h1.098v1.113z"></path>
<path d="M1.12 5.965h-1.098v-1.113h1.098v1.113z"></path>
<path d="M32.957 4.852h-1.098v-1.113h1.098v1.113z"></path>
<path d="M31.86 4.852h-1.098v-1.113h1.098v1.113z"></path>
<path d="M30.761 4.852h-1.098v-1.113h1.098v1.113z"></path>
<path d="M25.272 4.852h-1.098v-1.113h1.098v1.113z"></path>
<path d="M24.174 4.852h-1.098v-1.113h1.098v1.113z"></path>
<path d="M23.077 4.852h-1.098v-1.113h1.098v1.113z"></path>
<path d="M19.783 4.852h-1.098v-1.113h1.098v1.113z"></path>
<path d="M18.685 4.852h-1.098v-1.113h1.098v1.113z"></path>
<path d="M16.489 4.852h-1.098v-1.113h1.098v1.113z"></path>
<path d="M15.392 4.852h-1.098v-1.113h1.098v1.113z"></path>
<path d="M12.098 4.852h-1.098v-1.113h1.098v1.113z"></path>
<path d="M11 4.852h-1.098v-1.113h1.098v1.113z"></path>
<path d="M9.903 4.852h-1.098v-1.113h1.098v1.113z"></path>
<path d="M4.413 4.852h-1.098v-1.113h1.098v1.113z"></path>
<path d="M3.315 4.852h-1.098v-1.113h1.098v1.113z"></path>
<path d="M2.217 4.852h-1.098v-1.113h1.098v1.113z"></path>
<path d="M31.86 3.739h-1.098v-1.113h1.098v1.113z"></path>
<path d="M30.761 3.739h-1.098v-1.113h1.098v1.113z"></path>
<path d="M29.664 3.739h-1.098v-1.113h1.098v1.113z"></path>
<path d="M20.881 3.739h-1.098v-1.113h1.098v1.113z"></path>
<path d="M19.783 3.739h-1.098v-1.113h1.098v1.113z"></path>
<path d="M18.685 3.739h-1.098v-1.113h1.098v1.113z"></path>
<path d="M16.489 3.739h-1.098v-1.113h1.098v1.113z"></path>
<path d="M15.392 3.739h-1.098v-1.113h1.098v1.113z"></path>
<path d="M14.294 3.739h-1.098v-1.113h1.098v1.113z"></path>
<path d="M5.511 3.739h-1.098v-1.113h1.098v1.113z"></path>
<path d="M4.413 3.739h-1.098v-1.113h1.098v1.113z"></path>
<path d="M3.315 3.739h-1.098v-1.113h1.098v1.113z"></path>
<path d="M35.153 2.626h-1.098v-1.113h1.098v1.113z"></path>
<path d="M30.761 2.626h-1.098v-1.113h1.098v1.113z"></path>
<path d="M29.664 2.626h-1.098v-1.113h1.098v1.113z"></path>
<path d="M28.566 2.626h-1.098v-1.113h1.098v1.113z"></path>
<path d="M20.881 2.626h-1.098v-1.113h1.098v1.113z"></path>
<path d="M19.783 2.626h-1.098v-1.113h1.098v1.113z"></path>
<path d="M15.392 2.626h-1.098v-1.113h1.098v1.113z"></path>
<path d="M14.294 2.626h-1.098v-1.113h1.098v1.113z"></path>
<path d="M6.609 2.626h-1.098v-1.113h1.098v1.113z"></path>
<path d="M5.511 2.626h-1.098v-1.113h1.098v1.113z"></path>
<path d="M4.413 2.626h-1.098v-1.113h1.098v1.113z"></path>
<path d="M35.153 1.513h-1.098v-1.113h1.098v1.113z"></path>
<path d="M34.055 1.513h-1.098v-1.113h1.098v1.113z"></path>
<path d="M29.664 1.513h-1.098v-1.113h1.098v1.113z"></path>
<path d="M28.566 1.513h-1.098v-1.113h1.098v1.113z"></path>
<path d="M27.468 1.513h-1.098v-1.113h1.098v1.113z"></path>
<path d="M20.881 1.513h-1.098v-1.113h1.098v1.113z"></path>
<path d="M14.294 1.513h-1.098v-1.113h1.098v1.113z"></path>
<path d="M7.706 1.513h-1.098v-1.113h1.098v1.113z"></path>
<path d="M6.609 1.513h-1.098v-1.113h1.098v1.113z"></path>
<path d="M5.511 1.513h-1.098v-1.113h1.098v1.113z"></path>
<path d="M1.12 1.513h-1.098v-1.113h1.098v1.113z"></path>
</symbol>
</defs>
</svg>
